<svg width="29" height="29" viewBox="0 0 29 29" fill="none" xmlns="http://www.w3.org/2000/svg">
<path d="M20.5417 12.0834H24.125C24.8154 12.0834 25.375 12.643 25.375 13.3334V24.7084C25.375 25.7439 24.5356 26.5834 23.5 26.5834H22.4167C21.3812 26.5834 20.5417 25.7439 20.5417 24.7084V12.0834Z" stroke="black" stroke-width="1.5"/>
<path d="M22.4128 26.5834V27.3334L22.4143 25.8334L22.4128 26.5834ZM20.5417 24.7084L19.7917 24.7084V24.7084H20.5417ZM20.5417 23.7811L21.2917 23.7811L21.2917 23.7811L20.5417 23.7811ZM20.5417 12.0834L19.7917 12.0834L19.7917 12.0834L20.5417 12.0834ZM20.5417 4.91669L21.2917 4.91669V4.91669H20.5417ZM4.375 4.91669C4.375 3.95019 5.1585 3.16669 6.125 3.16669V1.66669C4.33008 1.66669 2.875 3.12176 2.875 4.91669H4.375ZM4.375 24.0834V4.91669H2.875V24.0834H4.375ZM6.125 25.8334C5.1585 25.8334 4.375 25.0498 4.375 24.0834H2.875C2.875 25.8783 4.33008 27.3334 6.125 27.3334V25.8334ZM22.4128 25.8334H6.125V27.3334H22.4128V25.8334ZM22.4143 25.8334C21.7941 25.8321 21.2917 25.3289 21.2917 24.7084H19.7917C19.7917 26.1563 20.964 27.3305 22.4113 27.3333L22.4143 25.8334ZM21.2917 24.7084L21.2917 23.7811L19.7917 23.7811L19.7917 24.7084L21.2917 24.7084ZM21.2917 23.7811L21.2917 12.0834L19.7917 12.0834L19.7917 23.7811L21.2917 23.7811ZM19.7917 4.91669L19.7917 12.0834L21.2917 12.0834L21.2917 4.91669L19.7917 4.91669ZM18.0417 3.16669C19.0082 3.16669 19.7917 3.95019 19.7917 4.91669H21.2917C21.2917 3.12176 19.8366 1.66669 18.0417 1.66669V3.16669ZM6.125 3.16669H18.0417V1.66669H6.125V3.16669Z" fill="black"/>
<path d="M7.25 8.45837H16.9167" stroke="black" stroke-width="1.5" stroke-linecap="round"/>
<path d="M7.25 12.0834H16.9167" stroke="black" stroke-width="1.5" stroke-linecap="round"/>
<path d="M9.66669 19.3333L11.995 21.6616C12.0438 21.7104 12.1229 21.7104 12.1717 21.6616L14.5 19.3333" stroke="black" stroke-width="1.5" stroke-linecap="round"/>
<path d="M12.0833 21.1459L12.0833 16.3125" stroke="black" stroke-width="1.5" stroke-linecap="round"/>
</svg>
