<svg width="64" height="64" viewBox="0 0 64 64" fill="none" xmlns="http://www.w3.org/2000/svg">
<ellipse cx="16" cy="44.7938" rx="5.33333" ry="5.26984" fill="#9F9F9F" fill-opacity="0.09" stroke="white" stroke-width="1.5"/>
<ellipse cx="45.3333" cy="44.7938" rx="5.33333" ry="5.26984" fill="#9F9F9F" fill-opacity="0.09" stroke="white" stroke-width="1.5"/>
<path fill-rule="evenodd" clip-rule="evenodd" d="M5.33331 43.741V14.2272C5.33331 13.6458 5.80459 13.1746 6.38593 13.1746H39.3686C39.95 13.1746 40.4213 13.6458 40.4213 14.2272V19.6744C40.4213 19.965 40.6569 20.2007 40.9476 20.2007H46.7878C47.1867 20.2007 47.5513 20.4261 47.7295 20.783L51.4704 28.2739C51.5856 28.5046 51.7814 28.685 52.0207 28.7808L58.0054 31.1776C58.4048 31.3376 58.6666 31.7245 58.6666 32.1548V43.741C58.6666 44.3223 58.1954 44.7936 57.614 44.7936H50.6666C50.6666 41.8832 48.2788 39.5239 45.3333 39.5239C42.3878 39.5239 40 41.8832 40 44.7936H21.3333C21.3332 41.8832 18.9455 39.5239 16 39.5239C13.0545 39.5239 10.6667 41.8832 10.6666 44.7936H6.38593C5.80459 44.7936 5.33331 44.3223 5.33331 43.741Z" fill="#9F9F9F" fill-opacity="0.09"/>
<path d="M47.7295 20.783L47.0585 21.1181L47.0585 21.1181L47.7295 20.783ZM51.4704 28.2739L52.1414 27.9389L52.1414 27.9389L51.4704 28.2739ZM52.0207 28.7808L52.2996 28.0846L52.2996 28.0846L52.0207 28.7808ZM58.0054 31.1776L57.7265 31.8739L57.7265 31.8739L58.0054 31.1776ZM50.6666 44.7936L49.9166 44.7936L49.9167 45.5436H50.6666V44.7936ZM40 44.7936V45.5436H40.75L40.75 44.7936L40 44.7936ZM21.3333 44.7936L20.5833 44.7936L20.5833 45.5436H21.3333V44.7936ZM10.6666 44.7936V45.5436H11.4166L11.4166 44.7936L10.6666 44.7936ZM4.58331 14.2272V43.741H6.08331V14.2272H4.58331ZM6.38593 12.4246C5.39037 12.4246 4.58331 13.2316 4.58331 14.2272H6.08331C6.08331 14.06 6.2188 13.9246 6.38593 13.9246V12.4246ZM39.3686 12.4246H6.38593V13.9246H39.3686V12.4246ZM41.1713 14.2272C41.1713 13.2316 40.3642 12.4246 39.3686 12.4246V13.9246C39.5358 13.9246 39.6713 14.06 39.6713 14.2272H41.1713ZM41.1713 19.6744V14.2272H39.6713V19.6744H41.1713ZM40.9476 19.4507C41.0711 19.4507 41.1713 19.5508 41.1713 19.6744H39.6713C39.6713 20.3793 40.2427 20.9507 40.9476 20.9507V19.4507ZM46.7878 19.4507H40.9476V20.9507H46.7878V19.4507ZM48.4005 20.4479C48.0953 19.8368 47.4709 19.4507 46.7878 19.4507V20.9507C46.9025 20.9507 47.0073 21.0155 47.0585 21.1181L48.4005 20.4479ZM52.1414 27.9389L48.4005 20.4479L47.0585 21.1181L50.7994 28.609L52.1414 27.9389ZM52.2996 28.0846C52.2308 28.057 52.1745 28.0052 52.1414 27.9389L50.7994 28.609C50.9967 29.004 51.332 29.3129 51.7419 29.4771L52.2996 28.0846ZM58.2842 30.4814L52.2996 28.0846L51.7419 29.4771L57.7265 31.8739L58.2842 30.4814ZM59.4166 32.1548C59.4166 31.418 58.9682 30.7553 58.2842 30.4814L57.7265 31.8739C57.8414 31.9198 57.9166 32.0311 57.9166 32.1548H59.4166ZM59.4166 43.741V32.1548H57.9166V43.741H59.4166ZM57.614 45.5436C58.6096 45.5436 59.4166 44.7365 59.4166 43.741H57.9166C57.9166 43.9081 57.7812 44.0436 57.614 44.0436V45.5436ZM50.6666 45.5436H57.614V44.0436H50.6666V45.5436ZM45.3333 40.2739C47.8731 40.2739 49.9166 42.3059 49.9166 44.7936L51.4166 44.7936C51.4166 41.4606 48.6845 38.7739 45.3333 38.7739V40.2739ZM40.75 44.7936C40.75 42.3059 42.7936 40.2739 45.3333 40.2739V38.7739C41.9821 38.7739 39.2501 41.4606 39.25 44.7936L40.75 44.7936ZM21.3333 45.5436H40V44.0436H21.3333V45.5436ZM16 40.2739C18.5397 40.2739 20.5833 42.3059 20.5833 44.7936L22.0833 44.7936C22.0832 41.4606 19.3512 38.7739 16 38.7739V40.2739ZM11.4166 44.7936C11.4167 42.3059 13.4602 40.2739 16 40.2739V38.7739C12.6488 38.7739 9.91672 41.4606 9.91665 44.7936L11.4166 44.7936ZM6.38593 45.5436H10.6666V44.0436H6.38593V45.5436ZM4.58331 43.741C4.58331 44.7366 5.39037 45.5436 6.38593 45.5436V44.0436C6.2188 44.0436 6.08331 43.9081 6.08331 43.741H4.58331Z" fill="white"/>
<mask id="path-5-outside-1_39_152" maskUnits="userSpaceOnUse" x="11.3333" y="19.3171" width="15" height="10" fill="black">
<rect fill="white" x="11.3333" y="19.3171" width="15" height="10"/>
<path d="M14.3493 24.7451H15.6413V25.3571H14.3493V24.7451ZM14.4053 26.3171H13.6133V23.5171H15.8093V24.1291H14.4053V26.3171ZM16.1797 26.3171V23.5171H17.4597C17.7157 23.5171 17.9357 23.5585 18.1197 23.6411C18.3064 23.7238 18.4504 23.8438 18.5517 24.0011C18.6531 24.1558 18.7037 24.3398 18.7037 24.5531C18.7037 24.7638 18.6531 24.9465 18.5517 25.1011C18.4504 25.2531 18.3064 25.3705 18.1197 25.4531C17.9357 25.5331 17.7157 25.5731 17.4597 25.5731H16.6197L16.9717 25.2411V26.3171H16.1797ZM17.9117 26.3171L17.2157 25.2971H18.0597L18.7597 26.3171H17.9117ZM16.9717 25.3251L16.6197 24.9611H17.4117C17.5771 24.9611 17.6997 24.9251 17.7797 24.8531C17.8624 24.7811 17.9037 24.6811 17.9037 24.5531C17.9037 24.4225 17.8624 24.3211 17.7797 24.2491C17.6997 24.1771 17.5771 24.1411 17.4117 24.1411H16.6197L16.9717 23.7771V25.3251ZM19.8687 24.6011H21.1687V25.1931H19.8687V24.6011ZM19.9247 25.7051H21.3887V26.3171H19.1407V23.5171H21.3367V24.1291H19.9247V25.7051ZM22.5562 24.6011H23.8562V25.1931H22.5562V24.6011ZM22.6122 25.7051H24.0762V26.3171H21.8282V23.5171H24.0242V24.1291H22.6122V25.7051Z"/>
</mask>
<path d="M14.3493 24.7451H15.6413V25.3571H14.3493V24.7451ZM14.4053 26.3171H13.6133V23.5171H15.8093V24.1291H14.4053V26.3171ZM16.1797 26.3171V23.5171H17.4597C17.7157 23.5171 17.9357 23.5585 18.1197 23.6411C18.3064 23.7238 18.4504 23.8438 18.5517 24.0011C18.6531 24.1558 18.7037 24.3398 18.7037 24.5531C18.7037 24.7638 18.6531 24.9465 18.5517 25.1011C18.4504 25.2531 18.3064 25.3705 18.1197 25.4531C17.9357 25.5331 17.7157 25.5731 17.4597 25.5731H16.6197L16.9717 25.2411V26.3171H16.1797ZM17.9117 26.3171L17.2157 25.2971H18.0597L18.7597 26.3171H17.9117ZM16.9717 25.3251L16.6197 24.9611H17.4117C17.5771 24.9611 17.6997 24.9251 17.7797 24.8531C17.8624 24.7811 17.9037 24.6811 17.9037 24.5531C17.9037 24.4225 17.8624 24.3211 17.7797 24.2491C17.6997 24.1771 17.5771 24.1411 17.4117 24.1411H16.6197L16.9717 23.7771V25.3251ZM19.8687 24.6011H21.1687V25.1931H19.8687V24.6011ZM19.9247 25.7051H21.3887V26.3171H19.1407V23.5171H21.3367V24.1291H19.9247V25.7051ZM22.5562 24.6011H23.8562V25.1931H22.5562V24.6011ZM22.6122 25.7051H24.0762V26.3171H21.8282V23.5171H24.0242V24.1291H22.6122V25.7051Z" fill="#9F9F9F" fill-opacity="0.09"/>
<path d="M14.3493 24.7451V23.2451H12.8493V24.7451H14.3493ZM15.6413 24.7451H17.1413V23.2451H15.6413V24.7451ZM15.6413 25.3571V26.8571H17.1413V25.3571H15.6413ZM14.3493 25.3571H12.8493V26.8571H14.3493V25.3571ZM14.4053 26.3171V27.8171H15.9053V26.3171H14.4053ZM13.6133 26.3171H12.1133V27.8171H13.6133V26.3171ZM13.6133 23.5171V22.0171H12.1133V23.5171H13.6133ZM15.8093 23.5171H17.3093V22.0171H15.8093V23.5171ZM15.8093 24.1291V25.6291H17.3093V24.1291H15.8093ZM14.4053 24.1291V22.6291H12.9053V24.1291H14.4053ZM14.3493 26.2451H15.6413V23.2451H14.3493V26.2451ZM14.1413 24.7451V25.3571H17.1413V24.7451H14.1413ZM15.6413 23.8571H14.3493V26.8571H15.6413V23.8571ZM15.8493 25.3571V24.7451H12.8493V25.3571H15.8493ZM14.4053 24.8171H13.6133V27.8171H14.4053V24.8171ZM15.1133 26.3171V23.5171H12.1133V26.3171H15.1133ZM13.6133 25.0171H15.8093V22.0171H13.6133V25.0171ZM14.3093 23.5171V24.1291H17.3093V23.5171H14.3093ZM15.8093 22.6291H14.4053V25.6291H15.8093V22.6291ZM12.9053 24.1291V26.3171H15.9053V24.1291H12.9053ZM16.1797 26.3171H14.6797V27.8171H16.1797V26.3171ZM16.1797 23.5171V22.0171H14.6797V23.5171H16.1797ZM18.1197 23.6411L17.505 25.0094L17.5123 25.0127L18.1197 23.6411ZM18.5517 24.0011L17.2906 24.8134L17.297 24.8232L18.5517 24.0011ZM18.5517 25.1011L19.7998 25.9332L19.8064 25.9232L18.5517 25.1011ZM18.1197 25.4531L18.7178 26.8288L18.7271 26.8247L18.1197 25.4531ZM16.6197 25.5731L15.5905 24.4819L12.8432 27.0731H16.6197V25.5731ZM16.9717 25.2411H18.4717V21.7644L15.9425 24.1499L16.9717 25.2411ZM16.9717 26.3171V27.8171H18.4717V26.3171H16.9717ZM17.9117 26.3171L16.6727 27.1626L17.1193 27.8171H17.9117V26.3171ZM17.2157 25.2971V23.7971H14.3763L15.9767 26.1426L17.2157 25.2971ZM18.0597 25.2971L19.2965 24.4484L18.8496 23.7971H18.0597V25.2971ZM18.7597 26.3171V27.8171H21.6084L19.9965 25.4684L18.7597 26.3171ZM16.9717 25.3251L15.8934 26.3679L18.4717 29.0341V25.3251H16.9717ZM16.6197 24.9611V23.4611H13.0825L15.5414 26.0039L16.6197 24.9611ZM17.7797 24.8531L16.7945 23.722L16.7853 23.73L16.7763 23.7382L17.7797 24.8531ZM17.7797 24.2491L16.7763 25.3641L16.7853 25.3722L16.7945 25.3803L17.7797 24.2491ZM16.6197 24.1411L15.5414 23.0984L13.0825 25.6411H16.6197V24.1411ZM16.9717 23.7771H18.4717V20.0682L15.8934 22.7344L16.9717 23.7771ZM17.6797 26.3171V23.5171H14.6797V26.3171H17.6797ZM16.1797 25.0171H17.4597V22.0171H16.1797V25.0171ZM17.4597 25.0171C17.5077 25.0171 17.533 25.0211 17.5397 25.0223C17.5459 25.0235 17.5321 25.0216 17.505 25.0094L18.7344 22.2729C18.3125 22.0833 17.8726 22.0171 17.4597 22.0171V25.0171ZM17.5123 25.0127C17.4897 25.0026 17.4514 24.9821 17.4074 24.9455C17.3627 24.9082 17.3225 24.8629 17.2906 24.8134L19.8128 23.1889C19.5385 22.763 19.1562 22.4597 18.7271 22.2696L17.5123 25.0127ZM17.297 24.8232C17.2595 24.7659 17.2343 24.7068 17.2195 24.6534C17.2052 24.6014 17.2037 24.5654 17.2037 24.5531H20.2037C20.2037 24.0938 20.0913 23.6139 19.8064 23.1791L17.297 24.8232ZM17.2037 24.5531C17.2037 24.5378 17.2056 24.5 17.2203 24.4472C17.2353 24.393 17.2606 24.3347 17.297 24.2791L19.8064 25.9232C20.0893 25.4914 20.2037 25.014 20.2037 24.5531H17.2037ZM17.3036 24.2691C17.3375 24.2183 17.378 24.1746 17.4202 24.1403C17.4615 24.1067 17.4955 24.0891 17.5123 24.0816L18.7271 26.8247C19.1426 26.6406 19.5223 26.3494 19.7998 25.9332L17.3036 24.2691ZM17.5216 24.0775C17.5466 24.0667 17.5577 24.0656 17.5484 24.0673C17.5386 24.0691 17.5104 24.0731 17.4597 24.0731V27.0731C17.8669 27.0731 18.3007 27.0101 18.7178 26.8287L17.5216 24.0775ZM17.4597 24.0731H16.6197V27.0731H17.4597V24.0731ZM17.6489 26.6643L18.0009 26.3323L15.9425 24.1499L15.5905 24.4819L17.6489 26.6643ZM15.4717 25.2411V26.3171H18.4717V25.2411H15.4717ZM16.9717 24.8171H16.1797V27.8171H16.9717V24.8171ZM19.1508 25.4717L18.4548 24.4517L15.9767 26.1426L16.6727 27.1626L19.1508 25.4717ZM17.2157 26.7971H18.0597V23.7971H17.2157V26.7971ZM16.8229 26.1459L17.5229 27.1659L19.9965 25.4684L19.2965 24.4484L16.8229 26.1459ZM18.7597 24.8171H17.9117V27.8171H18.7597V24.8171ZM18.05 24.2824L17.698 23.9184L15.5414 26.0039L15.8934 26.3679L18.05 24.2824ZM16.6197 26.4611H17.4117V23.4611H16.6197V26.4611ZM17.4117 26.4611C17.7561 26.4611 18.3126 26.3916 18.7832 25.9681L16.7763 23.7382C17.0869 23.4587 17.398 23.4611 17.4117 23.4611V26.4611ZM18.7649 25.9843C19.2307 25.5786 19.4037 25.0346 19.4037 24.5531H16.4037C16.4037 24.4559 16.4196 24.3129 16.4865 24.1512C16.5557 23.9837 16.6632 23.8364 16.7945 23.722L18.7649 25.9843ZM19.4037 24.5531C19.4037 24.0801 19.2377 23.5298 18.7649 23.118L16.7945 25.3803C16.6593 25.2625 16.5519 25.1126 16.4838 24.9457C16.4184 24.7852 16.4037 24.6452 16.4037 24.5531H19.4037ZM18.7832 23.1342C18.3126 22.7107 17.7561 22.6411 17.4117 22.6411V25.6411C17.398 25.6411 17.0869 25.6436 16.7763 25.3641L18.7832 23.1342ZM17.4117 22.6411H16.6197V25.6411H17.4117V22.6411ZM17.698 25.1839L18.05 24.8199L15.8934 22.7344L15.5414 23.0984L17.698 25.1839ZM15.4717 23.7771V25.3251H18.4717V23.7771H15.4717ZM19.8687 24.6011V23.1011H18.3687V24.6011H19.8687ZM21.1687 24.6011H22.6687V23.1011H21.1687V24.6011ZM21.1687 25.1931V26.6931H22.6687V25.1931H21.1687ZM19.8687 25.1931H18.3687V26.6931H19.8687V25.1931ZM19.9247 25.7051H18.4247V27.2051H19.9247V25.7051ZM21.3887 25.7051H22.8887V24.2051H21.3887V25.7051ZM21.3887 26.3171V27.8171H22.8887V26.3171H21.3887ZM19.1407 26.3171H17.6407V27.8171H19.1407V26.3171ZM19.1407 23.5171V22.0171H17.6407V23.5171H19.1407ZM21.3367 23.5171H22.8367V22.0171H21.3367V23.5171ZM21.3367 24.1291V25.6291H22.8367V24.1291H21.3367ZM19.9247 24.1291V22.6291H18.4247V24.1291H19.9247ZM19.8687 26.1011H21.1687V23.1011H19.8687V26.1011ZM19.6687 24.6011V25.1931H22.6687V24.6011H19.6687ZM21.1687 23.6931H19.8687V26.6931H21.1687V23.6931ZM21.3687 25.1931V24.6011H18.3687V25.1931H21.3687ZM19.9247 27.2051H21.3887V24.2051H19.9247V27.2051ZM19.8887 25.7051V26.3171H22.8887V25.7051H19.8887ZM21.3887 24.8171H19.1407V27.8171H21.3887V24.8171ZM20.6407 26.3171V23.5171H17.6407V26.3171H20.6407ZM19.1407 25.0171H21.3367V22.0171H19.1407V25.0171ZM19.8367 23.5171V24.1291H22.8367V23.5171H19.8367ZM21.3367 22.6291H19.9247V25.6291H21.3367V22.6291ZM18.4247 24.1291V25.7051H21.4247V24.1291H18.4247ZM22.5562 24.6011V23.1011H21.0562V24.6011H22.5562ZM23.8562 24.6011H25.3562V23.1011H23.8562V24.6011ZM23.8562 25.1931V26.6931H25.3562V25.1931H23.8562ZM22.5562 25.1931H21.0562V26.6931H22.5562V25.1931ZM22.6122 25.7051H21.1122V27.2051H22.6122V25.7051ZM24.0762 25.7051H25.5762V24.2051H24.0762V25.7051ZM24.0762 26.3171V27.8171H25.5762V26.3171H24.0762ZM21.8282 26.3171H20.3282V27.8171H21.8282V26.3171ZM21.8282 23.5171V22.0171H20.3282V23.5171H21.8282ZM24.0242 23.5171H25.5242V22.0171H24.0242V23.5171ZM24.0242 24.1291V25.6291H25.5242V24.1291H24.0242ZM22.6122 24.1291V22.6291H21.1122V24.1291H22.6122ZM22.5562 26.1011H23.8562V23.1011H22.5562V26.1011ZM22.3562 24.6011V25.1931H25.3562V24.6011H22.3562ZM23.8562 23.6931H22.5562V26.6931H23.8562V23.6931ZM24.0562 25.1931V24.6011H21.0562V25.1931H24.0562ZM22.6122 27.2051H24.0762V24.2051H22.6122V27.2051ZM22.5762 25.7051V26.3171H25.5762V25.7051H22.5762ZM24.0762 24.8171H21.8282V27.8171H24.0762V24.8171ZM23.3282 26.3171V23.5171H20.3282V26.3171H23.3282ZM21.8282 25.0171H24.0242V22.0171H21.8282V25.0171ZM22.5242 23.5171V24.1291H25.5242V23.5171H22.5242ZM24.0242 22.6291H22.6122V25.6291H24.0242V22.6291ZM21.1122 24.1291V25.7051H24.1122V24.1291H21.1122Z" fill="white" mask="url(#path-5-outside-1_39_152)"/>
</svg>
