<svg width="64" height="64" viewBox="0 0 64 64" fill="none" xmlns="http://www.w3.org/2000/svg">
<path fill-rule="evenodd" clip-rule="evenodd" d="M63.8656 41.3948C63.1532 53.9676 49.1397 64 31.95 64C14.3044 64 2.2428e-05 53.0745 2.2428e-05 40.3909C2.2428e-05 38.6955 -0.0411048 35.3074 3.39895 29.5909C5.45769 26.1699 6.74894 24.0207 7.47767 22.0561C7.87807 20.9764 8.65676 19.2609 10.8766 22.0561C12.1855 23.7042 12.2362 26.0747 12.2362 26.0747C12.2362 26.0747 17.1062 23.3132 20.3936 18.0375C25.213 10.3035 21.3677 5.6804 20.0537 2.46554C19.5989 1.3534 19.3134 -0.645345 22.433 0.205087C25.6117 1.07184 34.0152 5.41869 38.408 10.0004C44.6773 16.5393 46.9053 22.8096 46.9053 22.8096C46.9053 22.8096 48.9127 20.9686 49.6244 19.0422C50.4283 16.8669 50.4402 14.7124 53.023 17.0331C55.4794 19.2401 59.1275 23.3875 61.1808 27.3305C64.9091 34.4908 63.8656 41.3948 63.8656 41.3948Z" fill="url(#paint0_linear_180_118)"/>
<path fill-rule="evenodd" clip-rule="evenodd" d="M31.95 63.9999C19.7482 63.9999 9.85692 56.6909 9.85692 47.6744C9.85692 42.234 12.8238 38.931 18.9987 34.4518C22.9523 31.5838 26.6527 28.0613 28.2254 25.6627C28.5351 25.1905 29.2397 22.7299 31.9564 25.611C33.3816 27.1219 35.6157 29.8091 37.0484 32.1025C39.518 36.0565 40.1074 39.8885 40.1074 39.8885C40.1074 39.8885 42.5278 38.8346 44.1861 36.121C44.7208 35.2465 45.8016 31.9357 48.8233 35.246C51.0404 37.6752 54.0862 42.0429 54.043 47.6744C54.043 56.6909 44.1515 63.9999 31.95 63.9999Z" fill="#FC9502"/>
<path fill-rule="evenodd" clip-rule="evenodd" d="M32.2899 46.1674C35.4339 46.1674 35.4339 50.4696 39.4276 56.2139C42.0869 60.0388 38.1092 63.9999 32.2899 63.9999C26.4705 63.9999 23.4526 60.514 23.4526 56.2139C23.4526 51.914 29.1458 46.1674 32.2899 46.1674Z" fill="#FCE202"/>
<defs>
<linearGradient id="paint0_linear_180_118" x1="31.9979" y1="64.0472" x2="31.9979" y2="0.0483619" gradientUnits="userSpaceOnUse">
<stop stop-color="#FF4C0D"/>
<stop offset="1" stop-color="#FC9502"/>
</linearGradient>
</defs>
</svg>
