<svg width="69" height="65" viewBox="0 0 69 65" fill="none" xmlns="http://www.w3.org/2000/svg">
<g clip-path="url(#clip0_212_122)">
<path fill-rule="evenodd" clip-rule="evenodd" d="M28.693 1.46921C39.4311 8.3012 49.1315 11.5332 57.456 10.7702C58.9101 40.2912 48.0494 57.7243 28.8048 65C10.2193 58.1896 -0.773536 41.506 0.0431441 10.321C9.815 10.8351 19.4022 8.71383 28.693 1.46921Z" fill="#333333"/>
<path fill-rule="evenodd" clip-rule="evenodd" d="M28.7118 6.3869C37.6171 12.0527 46.164 15.2374 53.068 14.6029C54.2728 39.0858 44.7651 54.0485 28.8048 60.0823C13.3916 54.4341 3.77208 40.095 4.4486 14.2322C13.393 14.703 21.5894 11.9418 28.7118 6.3869Z" fill="white"/>
<path fill-rule="evenodd" clip-rule="evenodd" d="M51.6328 0C61.2254 0 69 7.80471 69 17.4344C69 27.0628 61.2254 34.8689 51.6328 34.8689C42.0415 34.8689 34.2655 27.0628 34.2655 17.4344C34.2655 7.80471 42.0415 0 51.6328 0Z" fill="white"/>
<path d="M51.6328 30.6263C58.8903 30.6263 64.7738 24.7201 64.7738 17.4345C64.7738 10.1488 58.8903 4.24261 51.6328 4.24261C44.3752 4.24261 38.4918 10.1488 38.4918 17.4345C38.4918 24.7201 44.3752 30.6263 51.6328 30.6263Z" fill="#56B320"/>
<path d="M48.7272 17.1463C49.0886 17.454 49.4293 17.7853 49.7474 18.1379C50.7447 16.5267 51.808 15.0466 52.9306 13.687C56.1043 9.83806 54.6663 10.5794 59.0691 10.5794L58.4573 11.2613C56.5773 13.3582 55.9426 14.45 54.4022 16.6849C52.8748 18.9019 51.4902 21.2146 50.2568 23.6089L49.8754 24.3476L49.525 23.5954C48.8782 22.2006 48.1033 20.9221 47.1801 19.7803C46.257 18.6371 45.4497 17.8917 44.1978 17.0286C44.7719 15.1373 47.5022 16.1046 48.7272 17.1463Z" fill="white"/>
<path fill-rule="evenodd" clip-rule="evenodd" d="M37.9601 35.5461C37.7486 41.4828 33.5884 46.22 28.4852 46.22C23.2466 46.22 19 41.0611 19 35.0721C19 34.2715 18.9878 32.6717 20.0091 29.9725C20.6203 28.3571 21.0036 27.3423 21.2199 26.4146C21.3388 25.9048 21.57 25.0948 22.229 26.4146C22.6176 27.1928 22.6326 28.3121 22.6326 28.3121C22.6326 28.3121 24.0784 27.0082 25.0544 24.5171C26.4851 20.8652 25.3435 18.6822 24.9534 17.1642C24.8184 16.6391 24.7337 15.6953 25.6598 16.0968C26.6035 16.5061 29.0983 18.5586 30.4024 20.722C32.2636 23.8097 32.925 26.7704 32.925 26.7704C32.925 26.7704 33.521 25.9011 33.7323 24.9915C33.9709 23.9643 33.9744 22.947 34.7412 24.0428C35.4705 25.0849 36.5535 27.0433 37.163 28.9051C38.2699 32.2861 37.9601 35.5461 37.9601 35.5461Z" fill="url(#paint0_linear_212_122)"/>
<path fill-rule="evenodd" clip-rule="evenodd" d="M28.4851 46.22C24.8627 46.22 21.9263 42.7688 21.9263 38.5113C21.9263 35.9424 22.8071 34.3828 24.6402 32.2678C25.814 30.9135 26.9125 29.2502 27.3794 28.1176C27.4713 27.8947 27.6805 26.7328 28.4871 28.0932C28.9102 28.8067 29.5734 30.0755 29.9987 31.1584C30.7319 33.0255 30.9069 34.8349 30.9069 34.8349C30.9069 34.8349 31.6254 34.3372 32.1178 33.0559C32.2765 32.643 32.5974 31.0797 33.4944 32.6428C34.1526 33.7898 35.0568 35.8522 35.044 38.5113C35.044 42.7688 32.1075 46.22 28.4851 46.22Z" fill="#FC9502"/>
<path fill-rule="evenodd" clip-rule="evenodd" d="M28.5861 37.7997C29.5195 37.7997 29.5195 39.8311 30.7051 42.5435C31.4946 44.3496 30.3137 46.2199 28.5861 46.2199C26.8585 46.2199 25.9625 44.574 25.9625 42.5435C25.9625 40.5131 27.6527 37.7997 28.5861 37.7997Z" fill="#FCE202"/>
</g>
<defs>
<linearGradient id="paint0_linear_212_122" x1="28.4994" y1="46.2423" x2="28.4994" y2="16.0228" gradientUnits="userSpaceOnUse">
<stop stop-color="#FF4C0D"/>
<stop offset="1" stop-color="#FC9502"/>
</linearGradient>
<clipPath id="clip0_212_122">
<rect width="69" height="65" fill="white"/>
</clipPath>
</defs>
</svg>
