<svg width="64" height="64" viewBox="0 0 66 66" fill="none" xmlns="http://www.w3.org/2000/svg">
<rect x="1" y="14.9023" width="44.8" height="50.2858" rx="2" stroke="white" stroke-width="1.5"/>
<path d="M17 40.0456L20.1012 46.6911C20.1451 46.7852 20.2744 46.7965 20.334 46.7114L29.8 33.1885" stroke="white" stroke-width="1.5" stroke-linecap="round"/>
<path d="M45.8 29.6459C45.8 29 46.1119 28.3938 46.6375 28.0184L63.2431 16.1573C63.9785 15.632 65 16.1577 65 17.0614V63.029C65 63.9328 63.9785 64.4585 63.2431 63.9332L46.6375 52.0721C46.1119 51.6966 45.8 51.0905 45.8 50.4446V29.6459Z" stroke="white" stroke-width="1.5"/>
<path d="M17 1.18823H34.5333C35.4538 1.18823 36.2 1.93442 36.2 2.8549V14.9025" stroke="white" stroke-width="1.5" stroke-linecap="round"/>
</svg>
