<svg width="66" height="67" viewBox="0 0 66 67" fill="none" xmlns="http://www.w3.org/2000/svg">
<path d="M32.6277 1.81444C32.8264 1.59279 33.1736 1.59279 33.3723 1.81444L38.9861 8.07626C39.1224 8.22828 39.3374 8.28217 39.5293 8.21238L48.4047 4.9844C48.7084 4.87397 49.0354 5.07619 49.0724 5.39717L49.9232 12.7966C49.9506 13.0356 50.1445 13.2212 50.3845 13.2382L59.9078 13.9143C60.2781 13.9406 60.4916 14.347 60.3032 14.6668L56.4429 21.2203C56.3001 21.4627 56.3854 21.7753 56.6315 21.9115L64.2097 26.1063C64.5535 26.2966 64.5535 26.7909 64.2097 26.9812L56.6315 31.1759C56.3854 31.3122 56.3001 31.6247 56.4429 31.8672L60.3032 38.4206C60.4916 38.7405 60.2781 39.1469 59.9078 39.1732L50.3845 39.8493C50.1445 39.8663 49.9506 40.0519 49.9232 40.2909L49.0724 47.6903C49.0354 48.0113 48.7084 48.2135 48.4047 48.1031L39.5293 44.8751C39.3374 44.8053 39.1224 44.8592 38.9861 45.0112L33.3723 51.273C33.1736 51.4947 32.8264 51.4947 32.6277 51.273L27.0139 45.0112C26.8776 44.8592 26.6626 44.8053 26.4707 44.8751L17.5953 48.1031C17.2916 48.2135 16.9646 48.0113 16.9276 47.6903L16.0768 40.2909C16.0494 40.0519 15.8555 39.8663 15.6155 39.8493L6.0922 39.1732C5.72192 39.1469 5.50839 38.7405 5.69679 38.4206L9.55712 31.8672C9.69994 31.6247 9.61464 31.3122 9.36845 31.1759L1.7903 26.9812C1.44649 26.7909 1.44649 26.2966 1.7903 26.1063L9.36845 21.9115C9.61464 21.7753 9.69994 21.4627 9.55712 21.2203L5.69679 14.6668C5.50839 14.347 5.72192 13.9406 6.0922 13.9143L15.6155 13.2382C15.8555 13.2212 16.0494 13.0356 16.0768 12.7966L16.9276 5.39717C16.9646 5.07619 17.2916 4.87397 17.5953 4.9844L26.4707 8.21238C26.6626 8.28217 26.8776 8.22828 27.0139 8.07626L32.6277 1.81444Z" stroke="white" stroke-width="1.5"/>
<path d="M21 47.2067L20.729 46.5073L20.25 46.6929V47.2067H21ZM21.7773 65.3165L22.135 65.9757L22.135 65.9757L21.7773 65.3165ZM32.749 59.3639L33.1067 60.0232L33.1067 60.0232L32.749 59.3639ZM33.251 59.3639L32.8933 60.0232L32.8933 60.0232L33.251 59.3639ZM44.2227 65.3165L44.5804 64.6572L44.5804 64.6572L44.2227 65.3165ZM45 47.2067H45.75V46.6929L45.271 46.5073L45 47.2067ZM39.5448 45.0931L39.2738 45.7925L39.2738 45.7925L39.5448 45.0931ZM38.9816 45.2374L38.4078 44.7545L38.4078 44.7545L38.9816 45.2374ZM33.3826 51.8904L33.9564 52.3733L33.9564 52.3733L33.3826 51.8904ZM32.6174 51.8904L32.0436 52.3733L32.0436 52.3733L32.6174 51.8904ZM27.0184 45.2374L26.4446 45.7203L26.4446 45.7203L27.0184 45.2374ZM26.4552 45.0931L26.1843 44.3938L26.1843 44.3938L26.4552 45.0931ZM21.75 64.8538V47.2067H20.25V64.8538H21.75ZM21.4196 64.6572C21.5687 64.5764 21.75 64.6843 21.75 64.8538H20.25C20.25 65.8214 21.2845 66.4371 22.135 65.9757L21.4196 64.6572ZM32.3914 58.7047L21.4196 64.6572L22.135 65.9757L33.1067 60.0232L32.3914 58.7047ZM33.6086 58.7047C33.229 58.4988 32.771 58.4988 32.3914 58.7047L33.1067 60.0232C33.0401 60.0593 32.9599 60.0593 32.8933 60.0232L33.6086 58.7047ZM44.5804 64.6572L33.6086 58.7047L32.8933 60.0232L43.865 65.9757L44.5804 64.6572ZM44.25 64.8538C44.25 64.6843 44.4313 64.5764 44.5804 64.6572L43.865 65.9757C44.7155 66.4371 45.75 65.8214 45.75 64.8538H44.25ZM44.25 47.2067V64.8538H45.75V47.2067H44.25ZM45.271 46.5073L39.8158 44.3938L39.2738 45.7925L44.729 47.906L45.271 46.5073ZM39.8158 44.3938C39.3176 44.2008 38.7518 44.3457 38.4078 44.7545L39.5554 45.7203C39.4866 45.8021 39.3735 45.8311 39.2738 45.7925L39.8158 44.3938ZM38.4078 44.7545L32.8087 51.4075L33.9564 52.3733L39.5554 45.7203L38.4078 44.7545ZM32.8087 51.4075C32.9086 51.2888 33.0914 51.2888 33.1913 51.4075L32.0436 52.3733C32.5431 52.9668 33.4569 52.9668 33.9564 52.3733L32.8087 51.4075ZM33.1913 51.4075L27.5922 44.7545L26.4446 45.7203L32.0436 52.3733L33.1913 51.4075ZM27.5922 44.7545C27.2482 44.3457 26.6824 44.2008 26.1843 44.3938L26.7262 45.7925C26.6265 45.8311 26.5134 45.8021 26.4446 45.7203L27.5922 44.7545ZM26.1843 44.3938L20.729 46.5073L21.271 47.906L26.7262 45.7925L26.1843 44.3938Z" fill="white"/>
<ellipse cx="33" cy="26.544" rx="16" ry="12.5723" stroke="white" stroke-width="1.5"/>
</svg>
