<svg width="64" height="64" viewBox="0 0 64 64" fill="none" xmlns="http://www.w3.org/2000/svg">
<g clip-path="url(#clip0_180_117)">
<path d="M56 38.9027C56 52.8384 45.24 64.1637 32 64.1637C18.76 64.1637 8 52.8384 8 38.9027C8 25.388 29.66 2.58991 30.6 1.62157C31.38 0.800583 32.62 0.800583 33.4 1.62157C34.34 2.58991 56 25.388 56 38.9027Z" fill="#34B0C0"/>
<path d="M28 53.6383C21.3828 53.6383 16 47.9727 16 41.0078C16 39.8443 16.8956 38.9027 18 38.9027C19.1044 38.9027 20 39.8443 20 41.0078C20 45.6518 23.5888 49.4281 28 49.4281C29.1044 49.4281 30 50.3697 30 51.5332C30 52.6967 29.1044 53.6383 28 53.6383Z" fill="white"/>
</g>
<defs>
<clipPath id="clip0_180_117">
<rect width="64" height="64" fill="white"/>
</clipPath>
</defs>
</svg>
