<svg width="69" height="65" viewBox="0 0 69 65" fill="none" xmlns="http://www.w3.org/2000/svg">
<g clip-path="url(#clip0_212_109)">
<path fill-rule="evenodd" clip-rule="evenodd" d="M28.693 1.46921C39.4311 8.3012 49.1315 11.5332 57.456 10.7702C58.9101 40.2912 48.0494 57.7243 28.8048 65C10.2193 58.1896 -0.773536 41.506 0.0431441 10.321C9.815 10.8351 19.4022 8.71383 28.693 1.46921Z" fill="#333333"/>
<path fill-rule="evenodd" clip-rule="evenodd" d="M28.7118 6.3869C37.6171 12.0527 46.164 15.2374 53.068 14.6029C54.2728 39.0858 44.7651 54.0485 28.8048 60.0823C13.3916 54.4341 3.77208 40.095 4.4486 14.2322C13.393 14.703 21.5894 11.9418 28.7118 6.3869Z" fill="white"/>
<path fill-rule="evenodd" clip-rule="evenodd" d="M51.6328 0C61.2254 0 69 7.80471 69 17.4344C69 27.0628 61.2254 34.8689 51.6328 34.8689C42.0415 34.8689 34.2655 27.0628 34.2655 17.4344C34.2655 7.80471 42.0415 0 51.6328 0Z" fill="white"/>
<path d="M51.6328 30.6263C58.8903 30.6263 64.7738 24.7201 64.7738 17.4345C64.7738 10.1488 58.8903 4.24261 51.6328 4.24261C44.3752 4.24261 38.4918 10.1488 38.4918 17.4345C38.4918 24.7201 44.3752 30.6263 51.6328 30.6263Z" fill="#56B320"/>
<path d="M48.7272 17.1463C49.0886 17.454 49.4293 17.7853 49.7474 18.1379C50.7447 16.5267 51.808 15.0466 52.9306 13.687C56.1043 9.83806 54.6663 10.5794 59.0691 10.5794L58.4573 11.2613C56.5773 13.3582 55.9426 14.45 54.4022 16.6849C52.8748 18.9019 51.4902 21.2146 50.2568 23.6089L49.8754 24.3476L49.525 23.5954C48.8782 22.2006 48.1033 20.9221 47.1801 19.7803C46.257 18.6371 45.4497 17.8917 44.1978 17.0286C44.7719 15.1373 47.5022 16.1046 48.7272 17.1463Z" fill="white"/>
<path fill-rule="evenodd" clip-rule="evenodd" d="M28.7887 16.7702C29.1889 18.5262 29.8344 20.2281 30.6053 21.8705C33.5365 28.1113 40.7262 35.2017 37.3234 42.0283C33.992 48.7155 23.3374 48.6452 20.1623 41.8118C17.0331 35.0786 23.9506 28.2222 26.8629 22.1303C27.6836 20.4121 28.3709 18.6223 28.7887 16.7702ZM23.8603 34.9622C24.9519 34.8594 24.9047 36.0161 25.0206 36.7548C25.3643 38.941 26.2564 40.7823 28.2563 41.9823C29.3587 42.6438 28.3736 44.3485 27.2793 43.6896C24.7484 42.173 23.5517 39.8488 23.1123 37.0633C22.9937 36.3097 22.7417 35.0651 23.8603 34.9622Z" fill="#2196F3"/>
</g>
<defs>
<clipPath id="clip0_212_109">
<rect width="69" height="65" fill="white"/>
</clipPath>
</defs>
</svg>
